<svg xmlns="http://www.w3.org/2000/svg" viewBox="0 0 1043 365" data-asc="1.02" width="1043" height="365"><defs/><g fill="#000000"><g transform="translate(0, 0)"><path d="M0 66L0 0L31 0L31 66L0 66ZM30 66L30 0L61 0L61 66L30 66ZM60 66L60 0L91 0L91 66L60 66ZM108 66L108 30L89.50 30L89.50 25L113 25L113 66L108 66M98 66L98 40L89.50 40L89.50 35L103 35L103 66L98 66ZM210 66L210 0L241 0L241 66L210 66ZM240 66L240 0L271 0L271 66L240 66ZM270 66L270 0L301 0L301 66L270 66ZM318 66L318 30L299.50 30L299.50 25L323 25L323 66L318 66M308 66L308 40L299.50 40L299.50 35L313 35L313 66L308 66ZM360 66L360 0L391 0L391 66L360 66ZM390 66L390 0L421 0L421 66L390 66ZM420 66L420 0L451 0L451 66L420 66ZM450 66L450 0L481 0L481 66L450 66ZM480 66L480 0L511 0L511 66L480 66ZM528 66L528 30L509.50 30L509.50 25L533 25L533 66L528 66M518 66L518 40L509.50 40L509.50 35L523 35L523 66L518 66ZM570 66L570 0L601 0L601 66L570 66ZM600 66L600 0L631 0L631 66L600 66ZM630 66L630 0L661 0L661 66L630 66ZM660 66L660 0L691 0L691 66L660 66ZM690 66L690 0L721 0L721 66L690 66ZM720 66L720 0L751 0L751 66L720 66ZM768 66L768 30L749.50 30L749.50 25L773 25L773 66L768 66M758 66L758 40L749.50 40L749.50 35L763 35L763 66L758 66ZM810 66L810 0L841 0L841 66L810 66ZM840 66L840 0L871 0L871 66L840 66ZM888 66L888 30L869.50 30L869.50 25L893 25L893 66L888 66M878 66L878 40L869.50 40L869.50 35L883 35L883 66L878 66ZM960 66L960 0L991 0L991 66L960 66ZM990 66L990 0L1021 0L1021 66L990 66ZM1038 66L1038 30L1019.50 30L1019.50 25L1043 25L1043 66L1038 66M1028 66L1028 40L1019.50 40L1019.50 35L1033 35L1033 66L1028 66Z"/></g><g transform="translate(0, 65)"><path d="M0 66L0 0L31 0L31 66L0 66ZM30 66L30 0L61 0L61 66L30 66ZM60 66L60 0L91 0L91 66L60 66ZM90 66L90 0L121 0L121 66L90 66ZM138 66L138 30L119.50 30L119.50 25L143 25L143 66L138 66M128 66L128 40L119.50 40L119.50 35L133 35L133 66L128 66ZM180 66L180 0L211 0L211 66L180 66ZM210 66L210 0L241 0L241 66L210 66ZM240 66L240 0L271 0L271 66L240 66ZM270 66L270 0L301 0L301 66L270 66ZM318 66L318 0L323 0L323 66L318 66M308 66L308 0L313 0L313 66L308 66ZM330 66L330 0L361 0L361 66L330 66ZM360 66L360 0L391 0L391 66L360 66ZM398 66L398 25L421.50 25L421.50 30L403 30L403 66L398 66M408 66L408 35L421.50 35L421.50 40L413 40L413 66L408 66ZM419.50 30L419.50 25L451.50 25L451.50 30L419.50 30M419.50 40L419.50 35L451.50 35L451.50 40L419.50 40ZM449.50 30L449.50 25L481.50 25L481.50 30L449.50 30M449.50 40L449.50 35L481.50 35L481.50 40L449.50 40ZM480 66L480 0L511 0L511 66L480 66ZM510 66L510 0L541 0L541 66L510 66ZM558 66L558 30L539.50 30L539.50 25L563 25L563 66L558 66M548 66L548 40L539.50 40L539.50 35L553 35L553 66L548 66ZM570 66L570 0L601 0L601 66L570 66ZM600 66L600 0L631 0L631 66L600 66ZM638 66L638 25L661.50 25L661.50 30L643 30L643 66L638 66M648 66L648 35L661.50 35L661.50 40L653 40L653 66L648 66ZM659.50 30L659.50 25L691.50 25L691.50 30L659.50 30M659.50 40L659.50 35L691.50 35L691.50 40L659.50 40ZM689.50 30L689.50 25L721.50 25L721.50 30L689.50 30M689.50 40L689.50 35L721.50 35L721.50 40L689.50 40ZM720 66L720 0L751 0L751 66L720 66ZM750 66L750 0L781 0L781 66L750 66ZM798 66L798 30L779.50 30L779.50 25L803 25L803 66L798 66M788 66L788 40L779.50 40L779.50 35L793 35L793 66L788 66ZM810 66L810 0L841 0L841 66L810 66ZM840 66L840 0L871 0L871 66L840 66ZM888 66L888 0L893 0L893 66L888 66M878 66L878 0L883 0L883 66L878 66ZM930 66L930 0L961 0L961 66L930 66ZM960 66L960 0L991 0L991 66L960 66ZM998 66L998 25L1021.50 25L1021.50 30L1003 30L1003 66L998 66M1008 66L1008 35L1021.50 35L1021.50 40L1013 40L1013 66L1008 66ZM1019.50 40L1019.50 35L1038 35L1038 0L1043 0L1043 40L1019.50 40M1019.50 30L1019.50 25L1028 25L1028 0L1033 0L1033 30L1019.50 30Z"/></g><g transform="translate(0, 130)"><path d="M0 66L0 0L31 0L31 66L0 66ZM30 66L30 0L61 0L61 66L30 66ZM68 66L68 25L91.50 25L91.50 30L73 30L73 66L68 66M78 66L78 35L91.50 35L91.50 40L83 40L83 66L78 66ZM90 66L90 0L121 0L121 66L90 66ZM120 66L120 0L151 0L151 66L120 66ZM150 66L150 0L181 0L181 66L150 66ZM180 66L180 0L211 0L211 66L180 66ZM218 66L218 25L241.50 25L241.50 30L223 30L223 66L218 66M228 66L228 35L241.50 35L241.50 40L233 40L233 66L228 66ZM240 66L240 0L271 0L271 66L240 66ZM270 66L270 0L301 0L301 66L270 66ZM318 66L318 0L323 0L323 66L318 66M308 66L308 0L313 0L313 66L308 66ZM330 66L330 0L361 0L361 66L330 66ZM360 66L360 0L391 0L391 66L360 66ZM390 66L390 0L421 0L421 66L390 66ZM420 66L420 0L451 0L451 66L420 66ZM450 66L450 0L481 0L481 66L450 66ZM480 66L480 0L511 0L511 66L480 66ZM510 66L510 0L541 0L541 66L510 66ZM558 66L558 0L563 0L563 66L558 66M548 66L548 0L553 0L553 66L548 66ZM570 66L570 0L601 0L601 66L570 66ZM600 66L600 0L631 0L631 66L600 66ZM630 66L630 0L661 0L661 66L630 66ZM660 66L660 0L691 0L691 66L660 66ZM690 66L690 0L721 0L721 66L690 66ZM720 66L720 0L751 0L751 66L720 66ZM758 66L758 25L781.50 25L781.50 30L763 30L763 66L758 66M768 66L768 35L781.50 35L781.50 40L773 40L773 66L768 66ZM779.50 40L779.50 35L798 35L798 0L803 0L803 40L779.50 40M779.50 30L779.50 25L788 25L788 0L793 0L793 30L779.50 30ZM810 66L810 0L841 0L841 66L810 66ZM840 66L840 0L871 0L871 66L840 66ZM870 66L870 0L901 0L901 66L870 66ZM900 66L900 0L931 0L931 66L900 66ZM930 66L930 0L961 0L961 66L930 66ZM968 66L968 25L991.50 25L991.50 30L973 30L973 66L968 66M978 66L978 35L991.50 35L991.50 40L983 40L983 66L978 66ZM989.50 40L989.50 35L1008 35L1008 0L1013 0L1013 40L989.50 40M989.50 30L989.50 25L998 25L998 0L1003 0L1003 30L989.50 30Z"/></g><g transform="translate(0, 195)"><path d="M0 66L0 0L31 0L31 66L0 66ZM30 66L30 0L61 0L61 66L30 66ZM78 66L78 0L83 0L83 66L78 66M68 66L68 0L73 0L73 66L68 66ZM98 40L98 0L103 0L103 35L121.50 35L121.50 40L98 40M108 30L108 0L113 0L113 25L121.50 25L121.50 30L108 30ZM120 66L120 0L151 0L151 66L120 66ZM150 66L150 0L181 0L181 66L150 66ZM188 66L188 25L211.50 25L211.50 30L193 30L193 66L188 66M198 66L198 35L211.50 35L211.50 40L203 40L203 66L198 66ZM209.50 40L209.50 35L228 35L228 0L233 0L233 40L209.50 40M209.50 30L209.50 25L218 25L218 0L223 0L223 30L209.50 30ZM240 66L240 0L271 0L271 66L240 66ZM270 66L270 0L301 0L301 66L270 66ZM318 66L318 0L323 0L323 66L318 66M308 66L308 0L313 0L313 66L308 66ZM330 66L330 0L361 0L361 66L330 66ZM360 66L360 0L391 0L391 66L360 66ZM398 66L398 25L421.50 25L421.50 30L403 30L403 66L398 66M408 66L408 35L421.50 35L421.50 40L413 40L413 66L408 66ZM419.50 30L419.50 25L451.50 25L451.50 30L419.50 30M419.50 40L419.50 35L451.50 35L451.50 40L419.50 40ZM449.50 30L449.50 25L481.50 25L481.50 30L449.50 30M449.50 40L449.50 35L481.50 35L481.50 40L449.50 40ZM480 66L480 0L511 0L511 66L480 66ZM510 66L510 0L541 0L541 66L510 66ZM558 66L558 0L563 0L563 66L558 66M548 66L548 0L553 0L553 66L548 66ZM570 66L570 0L601 0L601 66L570 66ZM600 66L600 0L631 0L631 66L600 66ZM638 66L638 25L661.50 25L661.50 30L643 30L643 66L638 66M648 66L648 35L661.50 35L661.50 40L653 40L653 66L648 66ZM659.50 30L659.50 25L691.50 25L691.50 30L659.50 30M659.50 40L659.50 35L691.50 35L691.50 40L659.50 40ZM689.50 30L689.50 25L721.50 25L721.50 30L689.50 30M689.50 40L689.50 35L721.50 35L721.50 40L689.50 40ZM720 66L720 0L751 0L751 66L720 66ZM750 66L750 0L781 0L781 66L750 66ZM798 66L798 30L779.50 30L779.50 25L803 25L803 66L798 66M788 66L788 40L779.50 40L779.50 35L793 35L793 66L788 66ZM810 66L810 0L841 0L841 66L810 66ZM840 66L840 0L871 0L871 66L840 66ZM878 66L878 25L901.50 25L901.50 30L883 30L883 66L878 66M888 66L888 35L901.50 35L901.50 40L893 40L893 66L888 66ZM899.50 30L899.50 25L931.50 25L931.50 30L899.50 30M899.50 40L899.50 35L931.50 35L931.50 40L899.50 40ZM930 66L930 0L961 0L961 66L930 66ZM960 66L960 0L991 0L991 66L960 66ZM1008 66L1008 30L989.50 30L989.50 25L1013 25L1013 66L1008 66M998 66L998 40L989.50 40L989.50 35L1003 35L1003 66L998 66Z"/></g><g transform="translate(0, 260)"><path d="M0 66L0 0L31 0L31 66L0 66ZM30 66L30 0L61 0L61 66L30 66ZM78 66L78 0L83 0L83 66L78 66M68 66L68 0L73 0L73 66L68 66ZM128 40L128 0L133 0L133 35L151.50 35L151.50 40L128 40M138 30L138 0L143 0L143 25L151.50 25L151.50 30L138 30ZM149.50 30L149.50 25L181.50 25L181.50 30L149.50 30M149.50 40L149.50 35L181.50 35L181.50 40L149.50 40ZM179.50 40L179.50 35L198 35L198 0L203 0L203 40L179.50 40M179.50 30L179.50 25L188 25L188 0L193 0L193 30L179.50 30ZM240 66L240 0L271 0L271 66L240 66ZM270 66L270 0L301 0L301 66L270 66ZM318 66L318 0L323 0L323 66L318 66M308 66L308 0L313 0L313 66L308 66ZM330 66L330 0L361 0L361 66L330 66ZM360 66L360 0L391 0L391 66L360 66ZM408 66L408 0L413 0L413 66L408 66M398 66L398 0L403 0L403 66L398 66ZM480 66L480 0L511 0L511 66L480 66ZM510 66L510 0L541 0L541 66L510 66ZM558 66L558 0L563 0L563 66L558 66M548 66L548 0L553 0L553 66L548 66ZM570 66L570 0L601 0L601 66L570 66ZM600 66L600 0L631 0L631 66L600 66ZM648 66L648 0L653 0L653 66L648 66M638 66L638 0L643 0L643 66L638 66ZM720 66L720 0L751 0L751 66L720 66ZM750 66L750 0L781 0L781 66L750 66ZM798 66L798 0L803 0L803 66L798 66M788 66L788 0L793 0L793 66L788 66ZM810 66L810 0L841 0L841 66L810 66ZM840 66L840 0L871 0L871 66L840 66ZM888 66L888 0L893 0L893 66L888 66M878 66L878 0L883 0L883 66L878 66ZM960 66L960 0L991 0L991 66L960 66ZM990 66L990 0L1021 0L1021 66L990 66ZM1038 66L1038 30L1019.50 30L1019.50 25L1043 25L1043 66L1038 66M1028 66L1028 40L1019.50 40L1019.50 35L1033 35L1033 66L1028 66Z"/></g><g transform="translate(0, 325)"><path d="M0 40L0 0L5 0L5 35L23.50 35L23.50 40L0 40M10 30L10 0L15 0L15 25L23.50 25L23.50 30L10 30ZM21.50 30L21.50 25L53.50 25L53.50 30L21.50 30M21.50 40L21.50 35L53.50 35L53.50 40L21.50 40ZM51.50 40L51.50 35L70 35L70 0L75 0L75 40L51.50 40M51.50 30L51.50 25L60 25L60 0L65 0L65 30L51.50 30ZM240 40L240 0L245 0L245 35L263.50 35L263.50 40L240 40M250 30L250 0L255 0L255 25L263.50 25L263.50 30L250 30ZM261.50 30L261.50 25L293.50 25L293.50 30L261.50 30M261.50 40L261.50 35L293.50 35L293.50 40L261.50 40ZM291.50 40L291.50 35L310 35L310 0L315 0L315 40L291.50 40M291.50 30L291.50 25L300 25L300 0L305 0L305 30L291.50 30ZM330 40L330 0L335 0L335 35L353.50 35L353.50 40L330 40M340 30L340 0L345 0L345 25L353.50 25L353.50 30L340 30ZM351.50 30L351.50 25L383.50 25L383.50 30L351.50 30M351.50 40L351.50 35L383.50 35L383.50 40L351.50 40ZM381.50 40L381.50 35L400 35L400 0L405 0L405 40L381.50 40M381.50 30L381.50 25L390 25L390 0L395 0L395 30L381.50 30ZM480 40L480 0L485 0L485 35L503.50 35L503.50 40L480 40M490 30L490 0L495 0L495 25L503.50 25L503.50 30L490 30ZM501.50 30L501.50 25L533.50 25L533.50 30L501.50 30M501.50 40L501.50 35L533.50 35L533.50 40L501.50 40ZM531.50 40L531.50 35L550 35L550 0L555 0L555 40L531.50 40M531.50 30L531.50 25L540 25L540 0L545 0L545 30L531.50 30ZM570 40L570 0L575 0L575 35L593.50 35L593.50 40L570 40M580 30L580 0L585 0L585 25L593.50 25L593.50 30L580 30ZM591.50 30L591.50 25L623.50 25L623.50 30L591.50 30M591.50 40L591.50 35L623.50 35L623.50 40L591.50 40ZM621.50 40L621.50 35L640 35L640 0L645 0L645 40L621.50 40M621.50 30L621.50 25L630 25L630 0L635 0L635 30L621.50 30ZM720 40L720 0L725 0L725 35L743.50 35L743.50 40L720 40M730 30L730 0L735 0L735 25L743.50 25L743.50 30L730 30ZM741.50 30L741.50 25L773.50 25L773.50 30L741.50 30M741.50 40L741.50 35L773.50 35L773.50 40L741.50 40ZM771.50 40L771.50 35L790 35L790 0L795 0L795 40L771.50 40M771.50 30L771.50 25L780 25L780 0L785 0L785 30L771.50 30ZM810 40L810 0L815 0L815 35L833.50 35L833.50 40L810 40M820 30L820 0L825 0L825 25L833.50 25L833.50 30L820 30ZM831.50 30L831.50 25L863.50 25L863.50 30L831.50 30M831.50 40L831.50 35L863.50 35L863.50 40L831.50 40ZM861.50 40L861.50 35L880 35L880 0L885 0L885 40L861.50 40M861.50 30L861.50 25L870 25L870 0L875 0L875 30L861.50 30ZM960 40L960 0L965 0L965 35L983.50 35L983.50 40L960 40M970 30L970 0L975 0L975 25L983.50 25L983.50 30L970 30ZM981.50 30L981.50 25L1013.50 25L1013.50 30L981.50 30M981.50 40L981.50 35L1013.50 35L1013.50 40L981.50 40ZM1011.50 40L1011.50 35L1030 35L1030 0L1035 0L1035 40L1011.50 40M1011.50 30L1011.50 25L1020 25L1020 0L1025 0L1025 30L1011.50 30Z"/></g><g transform="translate(0, 390)"><path d=""/></g></g></svg>